<svg xmlns="http://www.w3.org/2000/svg" viewBox="0 0 1440 320"><path fill="#0099ff" fill-opacity="1" d="M0,0L18.5,21.3C36.9,43,74,85,111,101.3C147.7,117,185,107,222,101.3C258.5,96,295,96,332,122.7C369.2,149,406,203,443,234.7C480,267,517,277,554,261.3C590.8,245,628,203,665,181.3C701.5,160,738,160,775,149.3C812.3,139,849,117,886,128C923.1,139,960,181,997,176C1033.8,171,1071,117,1108,106.7C1144.6,96,1182,128,1218,160C1255.4,192,1292,224,1329,202.7C1366.2,181,1403,107,1422,69.3L1440,32L1440,0L1421.5,0C1403.1,0,1366,0,1329,0C1292.3,0,1255,0,1218,0C1181.5,0,1145,0,1108,0C1070.8,0,1034,0,997,0C960,0,923,0,886,0C849.2,0,812,0,775,0C738.5,0,702,0,665,0C627.7,0,591,0,554,0C516.9,0,480,0,443,0C406.2,0,369,0,332,0C295.4,0,258,0,222,0C184.6,0,148,0,111,0C73.8,0,37,0,18,0L0,0Z"></path></svg>